<mxfile host="app.diagrams.net" modified="2023-02-03T09:04:16.811Z" agent="5.0 (Windows NT 10.0; Win64; x64) AppleWebKit/537.36 (KHTML, like Gecko) Chrome/109.0.0.0 Safari/537.36" etag="47x094FmO4KMCd8TbNck" version="20.8.16" type="github">
  <diagram name="Page-1" id="mNqvxlGTCGzZ_leFHZBI">
    <mxGraphModel dx="523" dy="864" grid="1" gridSize="10" guides="1" tooltips="1" connect="1" arrows="1" fold="1" page="1" pageScale="1" pageWidth="827" pageHeight="1169" math="0" shadow="0">
      <root>
        <mxCell id="0" />
        <mxCell id="1" parent="0" />
        <mxCell id="TD7qrLAO3I5ov_cmUv0_-3" style="edgeStyle=orthogonalEdgeStyle;rounded=0;orthogonalLoop=1;jettySize=auto;html=1;entryX=0;entryY=0.5;entryDx=0;entryDy=0;" edge="1" parent="1" source="TD7qrLAO3I5ov_cmUv0_-1" target="TD7qrLAO3I5ov_cmUv0_-2">
          <mxGeometry relative="1" as="geometry" />
        </mxCell>
        <mxCell id="TD7qrLAO3I5ov_cmUv0_-1" value="User" style="shape=umlActor;verticalLabelPosition=bottom;verticalAlign=top;html=1;outlineConnect=0;" vertex="1" parent="1">
          <mxGeometry x="130" y="90" width="30" height="60" as="geometry" />
        </mxCell>
        <mxCell id="TD7qrLAO3I5ov_cmUv0_-2" value="Login" style="ellipse;whiteSpace=wrap;html=1;" vertex="1" parent="1">
          <mxGeometry x="240" y="90" width="106" height="60" as="geometry" />
        </mxCell>
        <mxCell id="TD7qrLAO3I5ov_cmUv0_-9" style="edgeStyle=orthogonalEdgeStyle;rounded=0;orthogonalLoop=1;jettySize=auto;html=1;exitX=0.5;exitY=1;exitDx=0;exitDy=0;entryX=0.5;entryY=0;entryDx=0;entryDy=0;" edge="1" parent="1" source="TD7qrLAO3I5ov_cmUv0_-6" target="TD7qrLAO3I5ov_cmUv0_-8">
          <mxGeometry relative="1" as="geometry" />
        </mxCell>
        <mxCell id="TD7qrLAO3I5ov_cmUv0_-6" value="New applications" style="ellipse;whiteSpace=wrap;html=1;fillColor=none;" vertex="1" parent="1">
          <mxGeometry x="414" y="150" width="120" height="80" as="geometry" />
        </mxCell>
        <mxCell id="TD7qrLAO3I5ov_cmUv0_-7" value="" style="endArrow=none;html=1;rounded=0;exitX=1;exitY=0.5;exitDx=0;exitDy=0;entryX=0;entryY=0.5;entryDx=0;entryDy=0;" edge="1" parent="1" source="TD7qrLAO3I5ov_cmUv0_-2" target="TD7qrLAO3I5ov_cmUv0_-6">
          <mxGeometry width="50" height="50" relative="1" as="geometry">
            <mxPoint x="260" y="230" as="sourcePoint" />
            <mxPoint x="310" y="180" as="targetPoint" />
          </mxGeometry>
        </mxCell>
        <mxCell id="TD7qrLAO3I5ov_cmUv0_-8" value="Review&amp;nbsp;" style="ellipse;whiteSpace=wrap;html=1;fillColor=none;" vertex="1" parent="1">
          <mxGeometry x="414" y="290" width="120" height="80" as="geometry" />
        </mxCell>
        <mxCell id="TD7qrLAO3I5ov_cmUv0_-16" value="" style="edgeStyle=orthogonalEdgeStyle;rounded=0;orthogonalLoop=1;jettySize=auto;html=1;" edge="1" parent="1" source="TD7qrLAO3I5ov_cmUv0_-12" target="TD7qrLAO3I5ov_cmUv0_-15">
          <mxGeometry relative="1" as="geometry" />
        </mxCell>
        <mxCell id="TD7qrLAO3I5ov_cmUv0_-12" value="Employee" style="shape=umlActor;verticalLabelPosition=bottom;verticalAlign=top;html=1;outlineConnect=0;fillColor=none;" vertex="1" parent="1">
          <mxGeometry x="100" y="440" width="30" height="60" as="geometry" />
        </mxCell>
        <mxCell id="TD7qrLAO3I5ov_cmUv0_-17" style="edgeStyle=orthogonalEdgeStyle;rounded=0;orthogonalLoop=1;jettySize=auto;html=1;exitX=1;exitY=0.5;exitDx=0;exitDy=0;" edge="1" parent="1" source="TD7qrLAO3I5ov_cmUv0_-15">
          <mxGeometry relative="1" as="geometry">
            <mxPoint x="480" y="370" as="targetPoint" />
            <Array as="points">
              <mxPoint x="480" y="480" />
              <mxPoint x="480" y="370" />
            </Array>
          </mxGeometry>
        </mxCell>
        <mxCell id="TD7qrLAO3I5ov_cmUv0_-15" value="&lt;br&gt;Put in application" style="ellipse;whiteSpace=wrap;html=1;verticalAlign=top;fillColor=none;" vertex="1" parent="1">
          <mxGeometry x="270" y="430" width="80" height="80" as="geometry" />
        </mxCell>
      </root>
    </mxGraphModel>
  </diagram>
</mxfile>
